<svg width="89" height="49" viewBox="0 0 89 49" fill="none" xmlns="http://www.w3.org/2000/svg">
<path d="M49.0349 11.6572L49.5158 10.7804L49.0349 11.6572ZM82.445 48.3511C82.9107 48.6481 83.5289 48.5113 83.8258 48.0457L88.6649 40.4573C88.9619 39.9916 88.8251 39.3734 88.3594 39.0765C87.8938 38.7795 87.2756 38.9163 86.9786 39.3819L82.6772 46.1272L75.932 41.8258C75.4663 41.5288 74.8481 41.6656 74.5512 42.1312C74.2542 42.5969 74.391 43.2151 74.8566 43.5121L82.445 48.3511ZM1.00667 3.68763C1.41626 4.5999 1.41573 4.60014 1.41528 4.60034C1.41522 4.60037 1.41484 4.60054 1.41472 4.60059C1.41448 4.60069 1.41453 4.60067 1.41485 4.60053C1.41549 4.60025 1.41725 4.59947 1.42012 4.59822C1.42585 4.59572 1.43602 4.59132 1.45059 4.58514C1.47975 4.57279 1.52654 4.55333 1.59074 4.52776C1.71915 4.47662 1.9172 4.40104 2.18313 4.30897C2.715 4.12481 3.5183 3.87468 4.57902 3.622C6.70018 3.11672 9.85154 2.60105 13.9219 2.58267C22.0553 2.54593 33.8956 4.49451 48.554 12.534L49.5158 10.7804C34.565 2.5806 22.3913 0.544388 13.9128 0.582686C9.67725 0.601819 6.37327 1.13863 4.11556 1.67644C2.98685 1.94532 2.11984 2.21439 1.52876 2.41905C1.23321 2.52138 1.00662 2.60762 0.850767 2.66969C0.772837 2.70072 0.712584 2.72572 0.670232 2.74366C0.649055 2.75264 0.632353 2.75985 0.620152 2.76518C0.614052 2.76784 0.609077 2.77003 0.605231 2.77173C0.603307 2.77258 0.601667 2.77331 0.600308 2.77392C0.59963 2.77422 0.598822 2.77458 0.598483 2.77473C0.597748 2.77506 0.597082 2.77536 1.00667 3.68763ZM48.554 12.534C63.2224 20.579 71.5921 29.4361 76.2893 36.2404C78.6394 39.6449 80.0742 42.5413 80.9187 44.5737C81.341 45.5899 81.6157 46.3903 81.7835 46.9303C81.8673 47.2003 81.9245 47.4051 81.9599 47.5393C81.9777 47.6063 81.99 47.6557 81.9975 47.6868C82.0012 47.7023 82.0038 47.7132 82.0052 47.7194C82.006 47.7225 82.0064 47.7245 82.0066 47.7252C82.0067 47.7256 82.0067 47.7257 82.0066 47.7255C82.0066 47.7254 82.0065 47.725 82.0065 47.725C82.0064 47.7245 82.0063 47.724 82.9827 47.508C83.9591 47.292 83.9589 47.2913 83.9588 47.2905C83.9587 47.2902 83.9585 47.2894 83.9583 47.2887C83.958 47.2873 83.9577 47.2856 83.9572 47.2836C83.9563 47.2796 83.9551 47.2744 83.9536 47.268C83.9507 47.2553 83.9466 47.2378 83.9412 47.2157C83.9305 47.1715 83.9148 47.1088 83.8936 47.0283C83.851 46.8672 83.786 46.6349 83.6934 46.3369C83.5082 45.7409 83.2127 44.8823 82.7656 43.8062C81.8713 41.654 80.3709 38.6326 77.9352 35.1042C73.0608 28.0431 64.4566 18.9748 49.5158 10.7804L48.554 12.534Z" fill="#4FB4FE"/>
</svg>
