<svg width="104" height="36" viewBox="0 0 104 36" fill="none" xmlns="http://www.w3.org/2000/svg">
<path d="M54.423 30.9809L54.6922 31.9439L54.423 30.9809ZM99.3981 0.123354C99.919 -0.0600826 100.49 0.213513 100.673 0.734444L103.663 9.22352C103.846 9.74445 103.573 10.3155 103.052 10.4989C102.531 10.6823 101.96 10.4087 101.776 9.8878L99.1191 2.34195L91.5733 4.99907C91.0524 5.18251 90.4814 4.90891 90.2979 4.38798C90.1145 3.86705 90.3881 3.29605 90.909 3.11261L99.3981 0.123354ZM1.00002 27.5213C1.60609 26.7258 1.60563 26.7255 1.60525 26.7252C1.60521 26.7252 1.60489 26.7249 1.60482 26.7249C1.60466 26.7248 1.60477 26.7249 1.60515 26.7251C1.60591 26.7257 1.60773 26.7271 1.61063 26.7292C1.61643 26.7336 1.6265 26.741 1.64086 26.7515C1.66957 26.7724 1.71541 26.8054 1.77838 26.8492C1.90433 26.9369 2.09881 27.0681 2.36192 27.234C2.88814 27.5657 3.6888 28.0358 4.76472 28.5728C6.91631 29.6467 10.1694 30.9887 14.5317 32.0268C23.2492 34.1013 36.4326 34.971 54.1538 30.0178L54.6922 31.9439C36.6499 36.9869 23.1219 36.1268 14.0687 33.9724C9.54566 32.8961 6.1487 31.4989 3.87152 30.3623C2.73306 29.794 1.87466 29.291 1.29543 28.9259C1.00581 28.7433 0.785961 28.5952 0.635763 28.4907C0.560664 28.4384 0.502973 28.397 0.462677 28.3676C0.442529 28.3529 0.426729 28.3413 0.415275 28.3327C0.409548 28.3284 0.404908 28.325 0.401354 28.3223C0.399576 28.3209 0.398071 28.3198 0.396837 28.3189C0.39622 28.3184 0.395497 28.3179 0.39519 28.3176C0.394535 28.3171 0.393949 28.3167 1.00002 27.5213ZM54.1538 30.0178C71.886 25.0615 83.0746 17.6591 89.8155 11.535C93.188 8.4711 95.4524 5.72235 96.868 3.75157C97.5759 2.76609 98.0717 1.97499 98.3877 1.43613C98.5456 1.16671 98.6587 0.960362 98.7308 0.82433C98.7668 0.756317 98.7927 0.705883 98.8088 0.673938C98.8168 0.657966 98.8224 0.646616 98.8257 0.640001C98.8273 0.636694 98.8283 0.634571 98.8288 0.633645C98.829 0.633183 98.8291 0.633018 98.829 0.633156C98.829 0.633227 98.8288 0.633556 98.8288 0.633591C98.8286 0.633996 98.8284 0.634477 99.7302 1.06658C100.632 1.49869 100.632 1.49932 100.631 1.50003C100.631 1.50037 100.631 1.50115 100.631 1.50183C100.63 1.50318 100.629 1.50483 100.628 1.50679C100.626 1.5107 100.624 1.51581 100.621 1.52212C100.614 1.53473 100.606 1.5521 100.595 1.57412C100.573 1.61815 100.54 1.68079 100.498 1.7611C100.413 1.92172 100.286 2.15306 100.113 2.44779C99.7673 3.03726 99.238 3.88035 98.4924 4.91839C97.001 6.99463 94.6443 9.85018 91.1604 13.0153C84.1885 19.3493 72.7235 26.904 54.6922 31.9439L54.1538 30.0178Z" fill="#4FB4FE"/>
</svg>
