<svg width="166" height="25" viewBox="0 0 166 25" fill="none" xmlns="http://www.w3.org/2000/svg">
<path d="M0.820007 24V3.00003H4.03001L13.21 18.33H11.53L20.56 3.00003H23.77L23.8 24H20.11L20.08 8.79003H20.86L13.18 21.6H11.44L3.64001 8.79003H4.54001V24H0.820007Z" fill="white"/>
<path d="M35.5359 24L26.3559 3.00003H30.5859L38.7759 21.99H36.3459L44.6259 3.00003H48.5259L39.3759 24H35.5359Z" fill="white"/>
<path d="M50.7419 24V3.00003H59.3819C61.2419 3.00003 62.8319 3.30003 64.1519 3.90003C65.4919 4.50003 66.5219 5.36003 67.2419 6.48003C67.9619 7.60003 68.3219 8.93003 68.3219 10.47C68.3219 12.01 67.9619 13.34 67.2419 14.46C66.5219 15.58 65.4919 16.44 64.1519 17.04C62.8319 17.64 61.2419 17.94 59.3819 17.94H52.9019L54.6419 16.11V24H50.7419ZM54.6419 16.53L52.9019 14.64H59.2019C60.9219 14.64 62.2119 14.28 63.0719 13.56C63.9519 12.82 64.3919 11.79 64.3919 10.47C64.3919 9.13003 63.9519 8.10003 63.0719 7.38003C62.2119 6.66003 60.9219 6.30003 59.2019 6.30003H52.9019L54.6419 4.38003V16.53Z" fill="white"/>
<path d="M77.0995 24.21C75.7595 24.21 74.4695 24.04 73.2295 23.7C72.0095 23.34 71.0395 22.91 70.3195 22.41L71.7595 19.56C72.4795 20.02 73.3395 20.4 74.3395 20.7C75.3395 21 76.3395 21.15 77.3395 21.15C78.5195 21.15 79.3695 20.99 79.8895 20.67C80.4295 20.35 80.6995 19.92 80.6995 19.38C80.6995 18.94 80.5195 18.61 80.1595 18.39C79.7995 18.15 79.3295 17.97 78.7495 17.85C78.1695 17.73 77.5195 17.62 76.7995 17.52C76.0995 17.42 75.3895 17.29 74.6695 17.13C73.9695 16.95 73.3295 16.7 72.7495 16.38C72.1695 16.04 71.6995 15.59 71.3395 15.03C70.9795 14.47 70.7995 13.73 70.7995 12.81C70.7995 11.79 71.0895 10.91 71.6695 10.17C72.2495 9.41003 73.0595 8.83003 74.0995 8.43003C75.1595 8.01003 76.4095 7.80003 77.8495 7.80003C78.9295 7.80003 80.0195 7.92003 81.1195 8.16003C82.2195 8.40003 83.1295 8.74003 83.8495 9.18003L82.4095 12.03C81.6495 11.57 80.8795 11.26 80.0995 11.1C79.3395 10.92 78.5795 10.83 77.8195 10.83C76.6795 10.83 75.8295 11 75.2695 11.34C74.7295 11.68 74.4595 12.11 74.4595 12.63C74.4595 13.11 74.6395 13.47 74.9995 13.71C75.3595 13.95 75.8295 14.14 76.4095 14.28C76.9895 14.42 77.6295 14.54 78.3295 14.64C79.0495 14.72 79.7595 14.85 80.4595 15.03C81.1595 15.21 81.7995 15.46 82.3795 15.78C82.9795 16.08 83.4595 16.51 83.8195 17.07C84.1795 17.63 84.3595 18.36 84.3595 19.26C84.3595 20.26 84.0595 21.13 83.4595 21.87C82.8795 22.61 82.0495 23.19 80.9695 23.61C79.8895 24.01 78.5995 24.21 77.0995 24.21Z" fill="white"/>
<path d="M93.6189 24.21C91.8589 24.21 90.4989 23.76 89.5389 22.86C88.5789 21.94 88.0989 20.59 88.0989 18.81V4.44003H91.8489V18.72C91.8489 19.48 92.0389 20.07 92.4189 20.49C92.8189 20.91 93.3689 21.12 94.0689 21.12C94.9089 21.12 95.6089 20.9 96.1689 20.46L97.2189 23.13C96.7789 23.49 96.2389 23.76 95.5989 23.94C94.9589 24.12 94.2989 24.21 93.6189 24.21ZM85.4589 11.1V8.10003H96.1389V11.1H85.4589Z" fill="white"/>
<path d="M107.084 24.21C105.724 24.21 104.524 23.96 103.484 23.46C102.444 22.94 101.634 22.16 101.054 21.12C100.474 20.06 100.184 18.73 100.184 17.13V7.98003H103.934V16.62C103.934 18.06 104.254 19.14 104.894 19.86C105.554 20.56 106.484 20.91 107.684 20.91C108.564 20.91 109.324 20.73 109.964 20.37C110.624 20.01 111.134 19.47 111.494 18.75C111.874 18.03 112.064 17.14 112.064 16.08V7.98003H115.814V24H112.244V19.68L112.874 21C112.334 22.04 111.544 22.84 110.504 23.4C109.464 23.94 108.324 24.21 107.084 24.21Z" fill="white"/>
<path d="M127.504 24.21C125.964 24.21 124.574 23.87 123.334 23.19C122.114 22.49 121.154 21.53 120.454 20.31C119.754 19.09 119.404 17.65 119.404 15.99C119.404 14.33 119.754 12.89 120.454 11.67C121.154 10.45 122.114 9.50003 123.334 8.82003C124.574 8.14003 125.964 7.80003 127.504 7.80003C128.844 7.80003 130.044 8.10003 131.104 8.70003C132.164 9.28003 133.004 10.17 133.624 11.37C134.244 12.57 134.554 14.11 134.554 15.99C134.554 17.85 134.254 19.39 133.654 20.61C133.054 21.81 132.224 22.71 131.164 23.31C130.104 23.91 128.884 24.21 127.504 24.21ZM127.954 21C128.854 21 129.654 20.8 130.354 20.4C131.074 20 131.644 19.42 132.064 18.66C132.504 17.9 132.724 17.01 132.724 15.99C132.724 14.95 132.504 14.06 132.064 13.32C131.644 12.56 131.074 11.98 130.354 11.58C129.654 11.18 128.854 10.98 127.954 10.98C127.054 10.98 126.244 11.18 125.524 11.58C124.824 11.98 124.254 12.56 123.814 13.32C123.394 14.06 123.184 14.95 123.184 15.99C123.184 17.01 123.394 17.9 123.814 18.66C124.254 19.42 124.824 20 125.524 20.4C126.244 20.8 127.054 21 127.954 21ZM132.814 24V20.22L132.964 15.96L132.664 11.7V1.74003H136.384V24H132.814Z" fill="white"/>
<path d="M141.319 24V7.98003H145.069V24H141.319ZM143.209 5.34003C142.509 5.34003 141.929 5.12003 141.469 4.68003C141.029 4.24003 140.809 3.71003 140.809 3.09003C140.809 2.45003 141.029 1.92003 141.469 1.50003C141.929 1.06003 142.509 0.840027 143.209 0.840027C143.909 0.840027 144.479 1.05003 144.919 1.47003C145.379 1.87003 145.609 2.38003 145.609 3.00003C145.609 3.66003 145.389 4.22003 144.949 4.68003C144.509 5.12003 143.929 5.34003 143.209 5.34003Z" fill="white"/>
<path d="M157.191 24.21C155.551 24.21 154.091 23.86 152.811 23.16C151.531 22.44 150.521 21.46 149.781 20.22C149.041 18.98 148.671 17.57 148.671 15.99C148.671 14.39 149.041 12.98 149.781 11.76C150.521 10.52 151.531 9.55003 152.811 8.85003C154.091 8.15003 155.551 7.80003 157.191 7.80003C158.851 7.80003 160.321 8.15003 161.601 8.85003C162.901 9.55003 163.911 10.51 164.631 11.73C165.371 12.95 165.741 14.37 165.741 15.99C165.741 17.57 165.371 18.98 164.631 20.22C163.911 21.46 162.901 22.44 161.601 23.16C160.321 23.86 158.851 24.21 157.191 24.21ZM157.191 21C158.111 21 158.931 20.8 159.651 20.4C160.371 20 160.931 19.42 161.331 18.66C161.751 17.9 161.961 17.01 161.961 15.99C161.961 14.95 161.751 14.06 161.331 13.32C160.931 12.56 160.371 11.98 159.651 11.58C158.931 11.18 158.121 10.98 157.221 10.98C156.301 10.98 155.481 11.18 154.761 11.58C154.061 11.98 153.501 12.56 153.081 13.32C152.661 14.06 152.451 14.95 152.451 15.99C152.451 17.01 152.661 17.9 153.081 18.66C153.501 19.42 154.061 20 154.761 20.4C155.481 20.8 156.291 21 157.191 21Z" fill="white"/>
</svg>
